<svg width="20" height="20" viewBox="0 0 20 20" fill="none" xmlns="http://www.w3.org/2000/svg">
<path fill-rule="evenodd" clip-rule="evenodd" d="M3.33335 17.5H14.1667C14.1667 17.96 14.54 18.3334 15 18.3334C15.46 18.3334 15.8334 17.96 15.8334 17.5V15.8334C15.8334 15.3734 15.46 15 15 15C14.54 15 14.1667 15.3734 14.1667 15.8334H3.33335C3.33335 15.3734 2.96002 15 2.50002 15C2.04002 15 1.66669 15.3734 1.66669 15.8334V17.5C1.66669 17.96 2.04002 18.3334 2.50002 18.3334C2.96002 18.3334 3.33335 17.96 3.33335 17.5ZM3.33335 8.67838V13.3334C3.33335 13.7934 3.70669 14.1667 4.16669 14.1667H12.5C12.96 14.1667 13.3334 13.7934 13.3334 13.3334V8.67838L13.5775 8.92255C13.9025 9.24755 14.4309 9.24755 14.7559 8.92255C15.0809 8.59755 15.0809 8.06921 14.7559 7.74421L8.92252 1.91088C8.59752 1.58505 8.06919 1.58505 7.74419 1.91088L1.91085 7.74421C1.58585 8.06921 1.58585 8.59755 1.91085 8.92255C2.23585 9.24755 2.76419 9.24755 3.08919 8.92255L3.33335 8.67838ZM17.5 11.6667V4.16671C17.96 4.16671 18.3334 3.79338 18.3334 3.33338C18.3334 2.87338 17.96 2.50005 17.5 2.50005H15.8334C15.3734 2.50005 15 2.87338 15 3.33338C15 3.79338 15.3734 4.16671 15.8334 4.16671V11.6667C15.3734 11.6667 15 12.04 15 12.5C15 12.96 15.3734 13.3334 15.8334 13.3334H17.5C17.96 13.3334 18.3334 12.96 18.3334 12.5C18.3334 12.04 17.96 11.6667 17.5 11.6667ZM5.00002 7.01171V12.5H11.6667V7.01171L8.33335 3.67838L5.00002 7.01171Z" fill="black"/>
</svg>
